<svg clip-rule="evenodd" fill-rule="evenodd" height="128" image-rendering="optimizeQuality" shape-rendering="geometricPrecision" text-rendering="geometricPrecision" width="128" xmlns="http://www.w3.org/2000/svg"><path d="m36.5-.5h29c5.2439 1.310969 10.5772 2.6443 16 4 .0299.99722-.4701 1.66389-1.5 2-17.8932 8.4517-35.7266 16.7851-53.5 25-3.1663-.2659-6.3329-.5992-9.5-1-3.5278.0222-6.6944 1.0222-9.5 3 5.7409-10.9642 13.0743-20.7975 22-29.5 2.2133-1.61617 4.5466-2.782839 7-3.5z" fill="#9ae0f2" opacity=".994"/><path d="m81.5 3.5c5.6572.99613 10.6572 3.32946 15 7 .0299.9972-.4701 1.6639-1.5 2-16.985 7.9114-33.8183 15.9114-50.5 24-3.8811-1.4034-7.8811-2.4034-12-3-1.8713-1.2972-3.8713-2.2972-6-3 17.7734-8.2149 35.6068-16.5483 53.5-25 1.0299-.33611 1.5299-1.00278 1.5-2z" fill="#90ddf2" opacity=".991"/><path d="m96.5 10.5c7.237 7.5836 12.904 16.2503 17 26-9.377 4.3426-18.7098 8.6759-28 13-13.5937-4.5311-27.2604-8.8644-41-13 16.6817-8.0886 33.515-16.0886 50.5-24 1.0299-.3361 1.5299-1.0028 1.5-2z" fill="#79d5f3" opacity=".984"/><path d="m26.5 30.5c2.1287.7028 4.1287 1.7028 6 3 .6667 4 1.3333 8 2 12-10.308-1.8271-20.6413-3.4937-31-5 1.33333-2.6667 2.66667-5.3333 4-8 2.8056-1.9778 5.9722-2.9778 9.5-3 3.1671.4008 6.3337.7341 9.5 1z" fill="#2051cd" opacity=".97"/><path d="m3.5 40.5c10.3587 1.5063 20.692 3.1729 31 5 1.2736 2.4925 1.9403 5.1592 2 8-11.1941-2.6382-22.5274-4.6382-34-6 0-1 0-2 0-3 .33333-1.3333.66667-2.6667 1-4z" fill="#205ed1" opacity=".984"/><path d="m113.5 36.5c5.454 10.9073 9.787 22.2406 13 34-1.533-1.8548-3.2-3.6881-5-5.5-7.006-4.0047-14.339-7.1714-22-9.5-4.9671-1.4884-9.6338-3.4884-14-6 9.2902-4.3241 18.623-8.6574 28-13z" fill="#49c3f2" opacity=".982"/><path d="m2.5 44.5v3c11.4726 1.3618 22.8059 3.3618 34 6 1.1544 2.9518 2.1544 5.9518 3 9-12.7398-1.9626-25.4064-4.296-38-7-.683463.3627-1.35013.6961-2 1 0-2 0-4 0-6z" fill="#206bd3" opacity=".987"/><path d="m99.5 55.5c7.661 2.3286 14.994 5.4953 22 9.5 1.8 1.8119 3.467 3.6452 5 5.5h1v6c-1.119 3.5705-2.785 6.9039-5 10-8.313-8.4754-17.147-16.4754-26.5-24-.4828-.948-.6495-1.948-.5-3 1.3333-1.3333 2.6667-2.6667 4-4z" fill="#9d24b4" opacity=".986"/><path d="m39.5 62.5c.6667 3 1.3333 6 2 9-13.283-2.7565-26.6164-5.4232-40-8-.885676.825-1.21901 1.825-1 3-.333333 0-.666667 0-1 0 0-3.3333 0-6.6667 0-10 .64987-.3039 1.316537-.6373 2-1 12.5936 2.704 25.2602 5.0374 38 7z" fill="#2077d6" opacity=".979"/><path d="m95.5 59.5c-.1495 1.052.0172 2.052.5 3 9.353 7.5246 18.187 15.5246 26.5 24-2.574 4.909-5.908 9.2423-10 13 .17-1.3221-.163-2.4887-1-3.5-9.038-6.8584-17.7044-14.1917-26-22-1.245-.7914-2.5783-1.2914-4-1.5 4.6251-4.3241 9.2918-8.6574 14-13z" fill="#a92bb4" opacity=".979"/><path d="m41.5 71.5c1.1972 3.5946 2.1972 7.2612 3 11-14.0997-3.6288-28.4331-6.2954-43-8-.33333-2.6667-.666667-5.3333-1-8-.21901-1.175.114324-2.175 1-3 13.3836 2.5768 26.717 5.2435 40 8z" fill="#2084d9" opacity=".988"/><path d="m81.5 72.5c1.4217.2086 2.755.7086 4 1.5 8.2956 7.8083 16.962 15.1416 26 22 .837 1.0113 1.17 2.1779 1 3.5-3 3.667-6.333 7-10 10-.359-1.871-1.359-3.371-3-4.5-8.5185-6.7622-16.8518-13.7622-25-21-1.245-.7914-2.5783-1.2914-4-1.5 3.4362-3.5574 7.1029-6.8908 11-10z" fill="#b636b4" opacity=".989"/><path d="m1.5 74.5c14.5669 1.7046 28.9003 4.3712 43 8 1.7987 4.8605 3.132 9.8605 4 15-13.9825-2.3847-28.3159-4.718-43-7-1.20925-5.3843-2.54258-10.7176-4-16z" fill="#2095dd" opacity=".99"/><path d="m70.5 82.5c1.4217.2086 2.755.7086 4 1.5 8.1482 7.2378 16.4815 14.2378 25 21 1.641 1.129 2.641 2.629 3 4.5-4.2949 4.147-8.9616 7.813-14 11-9.4604-7.622-18.7937-15.456-28-23.5-1.245-.7914-2.5783-1.2914-4-1.5 3.9923-4.9899 8.659-9.3232 14-13z" fill="#c442b3" opacity=".988"/><path d="m5.5 90.5c14.6841 2.282 29.0175 4.6153 43 7 .904.709 1.2373 1.709 1 3v2c-3.3514 2.359-6.6847 4.692-10 7-9.32-2.635-18.82-4.969-28.5-7-.3988.228-.5654.562-.5 1-1.8429-4.1844-3.50956-8.5178-5-13z" fill="#22a0e0" opacity=".995"/><path d="m56.5 95.5c1.4217.2086 2.755.7086 4 1.5 9.2063 8.044 18.5396 15.878 28 23.5-2.4929 3.069-5.4929 5.402-9 7-.6667 0-1.3333 0-2 0-8.884-8.785-18.2173-17.119-28-25 0-.667 0-1.333 0-2 2.0732-2.0798 4.4066-3.7464 7-5z" fill="#d350b4" opacity=".987"/><path d="m39.5 109.5v1c-3.5117 2.67-7.1784 5.17-11 7.5-2.3098.497-4.6432.663-7 .5-5.5051-3.525-9.1718-8.525-11-15-.0654-.438.1012-.772.5-1 9.68 2.031 19.18 4.365 28.5 7z" fill="#24ace2" opacity=".987"/><path d="m49.5 102.5c9.7827 7.881 19.116 16.215 28 25-6 0-12 0-18 0-2.3844-2.891-5.051-5.724-8-8.5-3.8828-3.098-7.8828-5.932-12-8.5 0-.333 0-.667 0-1 3.3153-2.308 6.6486-4.641 10-7z" fill="#e15db4" opacity=".997"/><path d="m39.5 110.5c4.1172 2.568 8.1172 5.402 12 8.5 2.949 2.776 5.6156 5.609 8 8.5-2.3333 0-4.6667 0-7 0-9.9508-2.154-19.9508-4.654-30-7.5-.556-.383-.8893-.883-1-1.5 2.3568.163 4.6902-.003 7-.5 3.8216-2.33 7.4883-4.83 11-7.5z" fill="#ec68b4" opacity=".982"/></svg>
